<svg xmlns="http://www.w3.org/2000/svg" xmlns:xlink="http://www.w3.org/1999/xlink" id="tux" width="666.667" height="800"><defs><linearGradient id="A" xlink:href="#b"><stop offset="0" stop-color="#fff" stop-opacity=".65"/><stop offset="1" stop-color="#fff" stop-opacity="0"/></linearGradient><linearGradient id="B" xlink:href="#b"><stop offset="0" stop-color="#ffa63f"/><stop offset="1" stop-color="#ff0"/></linearGradient><linearGradient id="C" xlink:href="#b"><stop offset="0" stop-color="#ffeed7"/><stop offset="1" stop-color="#bdbfc2"/></linearGradient><linearGradient id="D" xlink:href="#b"><stop offset="0" stop-color="#fff" stop-opacity=".8"/><stop offset="1" stop-color="#fff" stop-opacity="0"/></linearGradient><radialGradient id="E" gradientTransform="scale(1.045233,0.956725)" cx="446.778" cy="1219.413" fx="446.778" fy="1219.413" r="195.072" xlink:href="#b"><stop offset="0" stop-color="#3f2600" stop-opacity=".6"/><stop offset="1" stop-color="#3f2600" stop-opacity="0"/></radialGradient><linearGradient xlink:href="#C" id="F" x1="230.437" y1="642.369" x2="230.591" y2="528.592"/><linearGradient xlink:href="#D" id="G" x1="338.189" y1="213.187" x2="331.569" y2="295.766"/><linearGradient xlink:href="#C" id="H" x1="309.402" y1="341.216" x2="310.492" y2="298.735"/><linearGradient xlink:href="#C" id="I" x1="311.402" y1="339.86" x2="310.719" y2="300.899"/><linearGradient xlink:href="#A" id="J" x1="309.531" y1="295.074" x2="307.652" y2="344.173"/><linearGradient xlink:href="#A" id="K" x1="318.136" y1="310.016" x2="316.04" y2="331.269"/><linearGradient xlink:href="#C" id="L" spreadMethod="reflect" x1="355.689" y1="650.635" x2="355.689" y2="484.839"/><linearGradient xlink:href="#C" id="M" x1="243.782" y1="646.038" x2="245.284" y2="498.686"/><linearGradient xlink:href="#D" id="N" x1="344.743" y1="463.509" x2="345.357" y2="571.74"/><linearGradient xlink:href="#A" id="O" x1="347.314" y1="404.148" x2="348.142" y2="453.558"/><linearGradient xlink:href="#A" id="P" x1="235.098" y1="424.944" x2="235.098" y2="579.752"/><linearGradient xlink:href="#A" id="Q" x1="496.7" y1="409.904" x2="496.694" y2="549.776"/><linearGradient xlink:href="#B" id="R" x1="238.974" y1="649.631" x2="214.957" y2="729.018"/><linearGradient xlink:href="#C" id="S" x1="406.558" y1="651.896" x2="297.959" y2="326.422"/><linearGradient xlink:href="#B" id="T" x1="220.266" y1="624.156" x2="205.128" y2="730.656"/><linearGradient xlink:href="#A" id="U" x1="118.8" y1="582.735" x2="183.653" y2="699.329"/><linearGradient xlink:href="#A" id="V" x1="222.99" y1="570.701" x2="230.421" y2="711.33"/><linearGradient xlink:href="#A" id="W" x1="337.699" y1="430.154" x2="395.949" y2="561.543"/><linearGradient xlink:href="#B" id="X" x1="346.943" y1="336.809" x2="347.885" y2="398.544"/><linearGradient xlink:href="#A" id="Y" x1="352.925" y1="326.41" x2="352.379" y2="394.912"/><path id="Z" d="M 328.86324 320.64151 A 18.087479 27.131195 0 1 1 292.68828,320.64151 A 18.087479 27.131195 0 1 1 328.86324 320.64151 z"/><path id="a" d="M415.072 495.764c-3.007 24.906-35.813 76.627-69.518 81.534-34.26 5.336-66.432-34.06-74.147-71.114-9.89-41.206 22.587-57.6 71.938-56.627 53.3 1.654 74.12 13.89 71.727 46.207z"/><linearGradient id="b" gradientUnits="userSpaceOnUse"/></defs><g transform="translate(-310.752 -64.253)"><path transform="matrix(1.4177 0 0 .414745 -38.7944 222.194)" d="M 670.88202 1166.6423 A 203.89551 186.63016 0 1 1 263.091,1166.6423 A 203.89551 186.63016 0 1 1 670.88202 1166.6423 z" fill="url(#E)"/><path d="M464.988 622.795c-27.985-40.28-33.442-171.23 31.86-251.787 32.357-38.648 40.613-65.58 43.164-101.74 1.736-41.224-29.156-164.302 87.354-173.68 118.007-9.415 111.67 107.075 110.99 168.72-.564 52.05 38.217 81.55 64.745 122.12 49.1 74.538 44.946 202.875-9.25 272.34-68.646 86.96-127.44 49.248-166.487 52.413-73.116 4.002-75.534 42.99-162.376-88.38z"/><path transform="matrix(-1.67739 -.022452 -.021124 1.4709 1173.58 -293.017)" d="M246.57 470.864c-12.24 12.496-44.396 69.092 4.87 105.36 17.37 12.633-16.377 59.495-32.005 36.308-27.57-41.618-8.83-106.94 8.315-130.188 11.652-16.487 29.23-22.676 18.82-11.48z" fill="url(#F)"/><path d="M744.307 382.6c33.408 26.996 94.238 122.038 5.516 183.772-29.14 19.248 25.823 79.94 56.684 48.895 107.3-107.91-2.8-231.996-40.7-274.654-33.873-37.098-63.878 8.765-21.5 41.987z" stroke="#000" stroke-width="1.566"/><path transform="matrix(1.26626 -.071367 -.045979 1.19574 202.143 -125.761)" d="M 399.56879 258.15753 A 58.37323 46.863022 0 1 1 282.82233,258.15753 A 58.37323 46.863022 0 1 1 399.56879 258.15753 z" fill="url(#G)"/><use xlink:href="#Z" transform="matrix(1.30445 -.075533 .077125 1.34257 144.757 -177.617)" fill="url(#H)"/><use xlink:href="#Z" transform="matrix(-1.81082 .049511 .031732 1.55333 1207.46 -284.777)" fill="url(#I)"/><path d="M637.1 234.83c-.273 12.776 6.172 23.148 14.395 23.166s15.1-10.325 15.384-23.102-6.172-23.148-14.395-23.166-15.1 10.325-15.384 23.102zm-52.126.134c1.03 10.576-2.946 19.736-8.884 20.458s-11.587-7.266-12.618-17.843 2.946-19.736 8.884-20.458 11.587 7.266 12.618 17.843z"/><use xlink:href="#Z" transform="matrix(-.480323 -.036454 -.046793 .475606 813.496 87.0124)" fill="url(#J)"/><use xlink:href="#Z" transform="matrix(.35691 -.040821 .041323 .398544 449.334 114.991)" fill="url(#K)"/><path transform="matrix(1.25 0 0 1.25 185.454 -168.23)" d="M258.702 495.425c12.836-29.103 40.114-80.226 40.695-119.758 0-31.442 94.18-38.95 101.737-7.558s26.74 78.483 38.95 101.156 47.81 94.695 9.884 157.546c-34.157 55.644-137.725 99.666-193-7.557-18.603-37.207-15.285-83.315 1.744-123.83z" fill="url(#L)"/><path transform="matrix(1.38936 -.111074 .102211 1.30214 108.413 -165.938)" d="M242.905 473.815c-11.263 18.967-35.5 69.31 12.137 102.047 51.31 34.82 46.473 97.062-15.607 61.955-56.777-31.79-22.845-137.778-4.5-162.266 12.107-17.214 29.897-38.03 7.98-1.736z" fill="url(#M)"/><path d="M506.095 394.645c-21.83 35.635-74.22 119.766-4.1 163.404 94.46 57.944 67.716 115.89-18.5 63.717-121.386-72.83-14.78-219.52 33.914-275.422 55.555-62.75 10.692 11.36-11.305 48.3z" stroke="#000" stroke-width="1.562"/><path d="M421.48 504.727c0 32.412-29.272 74.516-79.528 74.138-51.828.455-73.95-41.726-73.95-74.138S302.383 446 344.743 446s76.738 26.305 76.738 58.717z" transform="matrix(1.30209 0 0 1.22525 170.042 -153.557)" fill="url(#N)"/><path d="M398.227 412.292c-.612 38.572-23.18 47.67-51.74 47.67s-49.292-5.694-51.74-47.67c0-26.314 23.18-41.542 51.74-41.542s51.74 15.228 51.74 41.542z" transform="matrix(1.1868 0 0 1.06708 210.623 -100.078)" fill="url(#O)"/><g transform="matrix(1.25 0 0 1.25 185.454 -167.505)"><path d="M234.285 456.475c17.716-26.996 55.015-68.364 6.977 5.813-38.95 61.043-14.403 100.273-1.744 111.04 36.527 32.562 34.966 54.35 6.395 37.206-61.625-36.626-48.835-98.248-11.628-154.058z" fill="url(#P)"/><path d="M490.662 467.52c-15.32-31.7-64.134-111.902 2.326-18.603C553.45 533.214 511 591.93 503.452 597.744s-33.137 17.44-25.58-2.907 45.234-58.973 12.79-127.317z" fill="url(#Q)"/><path d="M220.915 716.92c-40.442-21.416-99.252 4.124-77.902-54.066 4.276-13.238-6.375-33.008.58-45.926 8.14-15.698 25.58-12.21 36.045-22.674 10.318-10.89 16.86-29.65 36.044-26.742s31.945 26.46 45.344 55.23c9.883 20.638 44.94 49.664 42.65 72.758-2.696 35.5-43.027 42.2-82.762 21.42z" fill="url(#R)" stroke="#e68c3f" stroke-width="6.25"/></g><use xlink:href="#a" transform="matrix(.598206 .268584 -.239623 .617213 700.568 140.464)" fill="url(#S)"/><path transform="matrix(-1.1685 .423145 .475283 1.16478 728.343 -213.821)" d="M220.274 718.402c-41.327-23.6-99.894 5.605-77.26-55.547 4.736-13.068-6.596-33.552.36-46.47 8.14-15.698 25.8-11.665 36.266-22.13 10.318-10.89 18.827-27.868 38.012-24.96s29.977 24.68 43.376 53.448c9.883 20.638 43.415 48.97 41.124 72.065-2.696 35.5-42.724 45.47-81.877 23.595z" fill="url(#T)" stroke="#e68c3f" stroke-width="6.251"/><path transform="matrix(-.945096 .343745 .424076 .956058 714.328 -64.342)" d="M216.482 675.68c-86.53-57.503-47.308-70.96-36.843-81.425 10.318-10.89 18.827-27.868 38.012-24.96s29.977 24.68 43.376 53.448c9.883 20.638 43.06 48.918 41.124 72.065-2.616 27.1-48.2 5.487-85.67-19.127z" fill="url(#U)"/><path transform="matrix(1.00431 -.052286 -.0174 1.04575 244.191 -28.4653)" d="M216.506 677.07c-86.53-57.503-46.797-73.57-33.946-81.28 15.4-9.942 15.158-30.83 34.343-27.924s30.725 26.107 44.124 54.875c9.883 20.638 43.06 48.918 41.124 72.065-2.616 27.1-48.166 6.878-85.645-17.736z" fill="url(#V)"/><path d="M824.916 557.147c-6.694 11.673-34.3 30.196-52.68 25.368-18.766-4.735-27.217-31.15-23.542-51.14 3.412-22.512 23.54-23.63 48.785-12.526 27.14 12.292 35.347 22.827 27.438 38.297z"/><use xlink:href="#a" transform="matrix(.351231 .149463 -.128856 .343469 724.522 318.291)" fill="url(#W)"/><g stroke="#e68c3f"><path transform="matrix(1.25 0 0 1.25 185.454 -167.505)" d="M309.954 338.73c7.147-6.77 24.81-27.066 57.96-5.755 6.162 4 11.162 4.377 23.02 9.455 23.726 9.75 12.382 33.26-12.744 41.108-10.758 3.49-20.536 16.556-40.13 15.44-16.734-.977-21.12-11.874-31.398-17.906-18.27-10.31-20.965-24.254-11.1-31.653l14.39-10.688z" fill="url(#X)" stroke-width="3.75"/><path d="M674.518 279.55c-12.354.726-39.24 27.614-67.582 27.614s-45.055-26.16-49.415-26.16" fill="none" stroke-width="3.125"/></g><path transform="matrix(.627885 0 0 .595666 392.366 51.8173)" d="M309.954 338.73c7.147-6.77 29.69-25.348 59.588-6.328l22.478 13.464c19.162 11.748 9.67 28.678-13.286 39.4-10.418 4.495-27.593 14.415-40.67 13.72-14.533-1.408-23.935-11.4-33.567-17.906-17.67-12.303-16.597-22.237-8.39-30.508 6.205-5.68 13.183-11.204 13.847-11.833z" fill="url(#Y)"/></g></svg>